PathFileType	4	(X/Y/Z) flx_2kg_2.trc																										
DataRate	CameraRate	NumFrames	NumMarkers	Units	OrigDataRate	OrigDataStartFrame	OrigNumFrames																					
100	100	59	9	mm	100	308	821																					
Frame#	Time	gu			centelbow			EpL			centpxt8			centijc7			ij			ts			aa			ai		
		X1	Y1	Z1	X2	Y2	Z2	X3	Y3	Z3	X4	Y4	Z4	X5	Y5	Z5	X6	Y6	Z6	X7	Y7	Z7	X8	Y8	Z8	X9	Y9	Z9  
307	3.07	-92.119	54.817	109.808	51.567	224.865	216.683	27.525	244.645	208.308	-46.816	-153.158	-8.669	-46.816	31.938	-8.669	0	0	0	-148.745	-17.434	55.841	-117.713	77.307	121.309	-120.738	-81.728	145.102
308	3.08	-91.879	54.863	109.742	50.5	226.081	216.499	26.364	245.692	207.999	-46.816	-153.158	-8.669	-46.816	31.938	-8.669	0	0	0	-148.703	-17.713	55.901	-118.256	77.287	121.267	-120.643	-81.713	145.356
309	3.09	-91.902	54.924	109.788	49.208	227.243	216.457	24.983	246.693	207.84	-46.816	-153.158	-8.669	-46.816	31.938	-8.669	0	0	0	-148.492	-17.877	55.948	-118.635	77.382	121.209	-120.369	-81.582	145.595
310	3.1	-92.382	55.075	109.812	47.443	228.474	216.423	23.125	247.76	207.701	-46.816	-153.158	-8.669	-46.816	31.938	-8.669	0	0	0	-148.11	-17.968	55.97	-118.878	77.551	121.134	-119.891	-81.377	145.795
311	3.11	-92.941	55.542	109.506	45.572	230.07	215.988	21.145	249.18	207.182	-46.816	-153.158	-8.669	-46.816	31.938	-8.669	0	0	0	-147.65	-18.133	55.916	-119.064	77.642	120.991	-119.31	-81.248	145.91
312	3.12	-93.178	56.094	108.9	44.117	231.735	215.128	19.578	250.67	206.254	-46.816	-153.158	-8.669	-46.816	31.938	-8.669	0	0	0	-147.259	-18.408	55.746	-119.31	77.621	120.724	-118.812	-81.226	145.914
313	3.13	-93.203	56.332	108.38	43.011	233.011	214.28	18.377	251.786	205.331	-46.816	-153.158	-8.669	-46.816	31.938	-8.669	0	0	0	-146.951	-18.716	55.441	-119.614	77.561	120.312	-118.417	-81.237	145.788
314	3.14	-93.298	56.303	108.256	41.811	234.017	213.839	17.094	252.635	204.79	-46.816	-153.158	-8.669	-46.816	31.938	-8.669	0	0	0	-146.659	-19.115	55.116	-119.908	77.397	119.882	-118.046	-81.35	145.636
315	3.15	-93.494	56.23	108.481	40.355	235.025	213.842	15.56	253.477	204.67	-46.816	-153.158	-8.669	-46.816	31.938	-8.669	0	0	0	-146.394	-19.57	54.965	-120.223	77.172	119.626	-117.708	-81.521	145.656
316	3.16	-93.756	56.088	108.779	38.766	235.933	214.032	13.895	254.219	204.733	-46.816	-153.158	-8.669	-46.816	31.938	-8.669	0	0	0	-146.16	-19.816	54.989	-120.592	77.163	119.535	-117.398	-81.469	145.858
317	3.17	-94.098	55.769	108.879	37.19	236.56	214.057	12.249	254.693	204.644	-46.816	-153.158	-8.669	-46.816	31.938	-8.669	0	0	0	-145.821	-19.816	55.005	-120.886	77.402	119.439	-116.975	-81.165	146.053
318	3.18	-94.366	55.361	108.651	35.824	237.029	213.684	10.818	255.02	204.173	-46.816	-153.158	-8.669	-46.816	31.938	-8.669	0	0	0	-145.271	-19.923	54.956	-120.984	77.526	119.289	-116.366	-80.975	146.185
319	3.19	-94.366	55.098	108.226	34.784	237.649	213.011	9.711	255.497	203.409	-46.816	-153.158	-8.669	-46.816	31.938	-8.669	0	0	0	-144.632	-20.321	54.942	-121.014	77.363	119.167	-115.726	-81.063	146.377
320	3.2	-94.222	55.193	107.935	33.837	238.685	212.415	8.694	256.381	202.716	-46.816	-153.158	-8.669	-46.816	31.938	-8.669	0	0	0	-144.167	-20.778	55.003	-121.263	77.157	119.104	-115.299	-81.183	146.674
321	3.21	-94.329	55.604	107.941	32.551	240.083	212.121	7.337	257.618	202.312	-46.816	-153.158	-8.669	-46.816	31.938	-8.669	0	0	0	-144.068	-21.091	55.156	-121.912	77.097	119.133	-115.253	-81.151	147.07
322	3.22	-94.924	55.964	108.066	30.747	241.423	211.97	5.468	258.797	202.044	-46.816	-153.158	-8.669	-46.816	31.938	-8.669	0	0	0	-144.247	-21.271	55.39	-122.811	77.151	119.253	-115.48	-81.006	147.53
323	3.23	-95.749	56.065	108.057	28.727	242.466	211.713	3.389	259.684	201.665	-46.816	-153.158	-8.669	-46.816	31.938	-8.669	0	0	0	-144.32	-21.308	55.508	-123.521	77.324	119.258	-115.542	-80.748	147.836
324	3.24	-96.284	56.068	107.875	26.997	243.384	211.31	1.605	260.448	201.137	-46.816	-153.158	-8.669	-46.816	31.938	-8.669	0	0	0	-144.037	-21.223	55.297	-123.784	77.598	118.928	-115.154	-80.393	147.765
325	3.25	-96.293	56.08	107.619	25.789	244.319	210.8	0.345	261.228	200.499	-46.816	-153.158	-8.669	-46.816	31.938	-8.669	0	0	0	-143.549	-21.233	54.84	-123.789	77.758	118.363	-114.524	-80.157	147.42
326	3.26	-96.043	56.019	107.37	24.864	245.201	210.211	-0.633	261.952	199.784	-46.816	-153.158	-8.669	-46.816	31.938	-8.669	0	0	0	-143.103	-21.533	54.445	-123.856	77.609	117.89	-113.993	-80.233	147.141
327	3.27	-95.941	55.856	107.289	23.821	245.96	209.769	-1.727	262.555	199.218	-46.816	-153.158	-8.669	-46.816	31.938	-8.669	0	0	0	-142.821	-22.06	54.33	-124.155	77.235	117.711	-113.707	-80.532	147.169
328	3.28	-96.152	55.713	107.569	22.536	246.644	209.758	-3.06	263.096	199.099	-46.816	-153.158	-8.669	-46.816	31.938	-8.669	0	0	0	-142.72	-22.431	54.396	-124.69	77.034	117.692	-113.624	-80.643	147.403
329	3.29	-96.637	55.727	108.039	21.174	247.347	209.955	-4.472	263.675	199.226	-46.816	-153.158	-8.669	-46.816	31.938	-8.669	0	0	0	-142.709	-22.27	54.354	-125.312	77.381	117.534	-113.576	-80.193	147.53
330	3.3	-97.341	55.919	108.167	19.895	248.108	209.673	-5.813	264.331	198.933	-46.816	-153.158	-8.669	-46.816	31.938	-8.669	0	0	0	-142.706	-21.783	54.136	-125.854	78.05	117.176	-113.483	-79.42	147.461
331	3.31	-98.147	56.249	107.729	18.737	248.964	208.642	-7.044	265.091	197.934	-46.816	-153.158	-8.669	-46.816	31.938	-8.669	0	0	0	-142.75	-21.557	53.998	-126.281	78.436	116.886	-113.456	-78.943	147.456
332	3.32	-98.764	56.732	107.093	17.752	250.004	207.364	-8.105	266.03	196.685	-46.816	-153.158	-8.669	-46.816	31.938	-8.669	0	0	0	-142.852	-21.758	54.171	-126.641	78.363	116.923	-113.559	-78.945	147.751
333	3.33	-98.99	57.429	106.615	16.923	251.33	206.368	-8.999	267.24	195.678	-46.816	-153.158	-8.669	-46.816	31.938	-8.669	0	0	0	-142.895	-22.001	54.54	-126.945	78.222	117.196	-113.651	-79.027	148.233
334	3.34	-98.987	58.233	106.315	15.999	252.859	205.73	-9.973	268.636	194.964	-46.816	-153.158	-8.669	-46.816	31.938	-8.669	0	0	0	-142.835	-21.958	54.75	-127.238	78.368	117.329	-113.63	-78.815	148.558
335	3.35	-99.043	58.696	106.257	14.752	254.118	205.48	-11.241	269.754	194.558	-46.816	-153.158	-8.669	-46.816	31.938	-8.669	0	0	0	-142.739	-21.775	54.604	-127.594	78.687	117.078	-113.555	-78.41	148.553
336	3.36	-99.188	58.475	106.551	13.299	254.694	205.694	-12.674	270.196	194.535	-46.816	-153.158	-8.669	-46.816	31.938	-8.669	0	0	0	-142.573	-21.736	54.242	-127.953	78.898	116.561	-113.424	-78.086	148.373
337	3.37	-99.327	57.852	106.999	11.87	254.8	206.151	-14.056	270.184	194.724	-46.816	-153.158	-8.669	-46.816	31.938	-8.669	0	0	0	-142.228	-21.811	53.88	-128.189	79.009	116.033	-113.148	-77.851	148.216
338	3.38	-99.482	57.316	107.339	10.52	254.886	206.584	-15.36	270.166	194.916	-46.816	-153.158	-8.669	-46.816	31.938	-8.669	0	0	0	-141.747	-21.859	53.613	-128.309	79.125	115.633	-112.764	-77.618	148.146
339	3.39	-99.644	57.022	107.564	9.268	255.138	206.924	-16.589	270.318	195.075	-46.816	-153.158	-8.669	-46.816	31.938	-8.669	0	0	0	-141.347	-21.96	53.489	-128.476	79.163	115.402	-112.477	-77.475	148.201
340	3.4	-99.79	56.986	107.65	8.152	255.638	207.001	-17.716	270.711	195.041	-46.816	-153.158	-8.669	-46.816	31.938	-8.669	0	0	0	-141.184	-22.182	53.535	-128.809	79.078	115.326	-112.414	-77.458	148.417
341	3.41	-100.005	57.244	107.416	7.14	256.429	206.56	-18.772	271.392	194.556	-46.816	-153.158	-8.669	-46.816	31.938	-8.669	0	0	0	-141.174	-22.431	53.672	-129.205	78.97	115.311	-112.465	-77.463	148.713
342	3.42	-100.298	57.649	106.86	6.245	257.304	205.708	-19.726	272.166	193.707	-46.816	-153.158	-8.669	-46.816	31.938	-8.669	0	0	0	-141.145	-22.643	53.742	-129.493	78.888	115.229	-112.462	-77.452	148.92
343	3.43	-100.551	57.932	106.286	5.534	257.957	204.877	-20.492	272.738	192.892	-46.816	-153.158	-8.669	-46.816	31.938	-8.669	0	0	0	-141.028	-22.755	53.643	-129.664	78.885	115.003	-112.347	-77.371	148.933
344	3.44	-100.684	57.991	105.957	4.987	258.342	204.331	-21.08	273.052	192.349	-46.816	-153.158	-8.669	-46.816	31.938	-8.669	0	0	0	-140.826	-22.708	53.423	-129.799	79.04	114.664	-112.131	-77.127	148.821
345	3.45	-100.713	57.934	105.848	4.501	258.636	203.995	-21.599	273.273	191.995	-46.816	-153.158	-8.669	-46.816	31.938	-8.669	0	0	0	-140.558	-22.672	53.282	-129.933	79.202	114.386	-111.866	-76.861	148.812
346	3.46	-100.736	57.831	105.784	3.953	258.933	203.674	-22.174	273.49	191.636	-46.816	-153.158	-8.669	-46.816	31.938	-8.669	0	0	0	-140.299	-22.867	53.391	-130.128	79.145	114.34	-111.678	-76.802	149.085
347	3.47	-100.865	57.599	105.71	3.243	259.139	203.321	-22.907	273.61	191.229	-46.816	-153.158	-8.669	-46.816	31.938	-8.669	0	0	0	-140.168	-23.193	53.668	-130.489	78.961	114.46	-111.654	-76.865	149.542
348	3.48	-101.077	57.253	105.693	2.357	259.269	203.034	-23.814	273.646	190.876	-46.816	-153.158	-8.669	-46.816	31.938	-8.669	0	0	0	-140.072	-23.349	53.837	-130.907	78.95	114.465	-111.601	-76.742	149.88
349	3.49	-101.255	57.064	105.733	1.385	259.604	202.825	-24.816	273.872	190.603	-46.816	-153.158	-8.669	-46.816	31.938	-8.669	0	0	0	-139.763	-23.283	53.748	-131.078	79.165	114.195	-111.223	-76.386	149.931
350	3.5	-101.42	57.206	105.722	0.372	260.302	202.545	-25.869	274.451	190.27	-46.816	-153.158	-8.669	-46.816	31.938	-8.669	0	0	0	-139.306	-23.267	53.494	-130.999	79.321	113.756	-110.652	-76.096	149.794
351	3.51	-101.686	57.506	105.516	-0.712	261.153	202.038	-26.998	275.182	189.722	-46.816	-153.158	-8.669	-46.816	31.938	-8.669	0	0	0	-139.073	-23.473	53.272	-131.057	79.237	113.365	-110.359	-76.068	149.681
352	3.52	-102.037	57.726	105.164	-1.864	261.9	201.405	-28.194	275.812	189.052	-46.816	-153.158	-8.669	-46.816	31.938	-8.669	0	0	0	-139.18	-23.741	53.222	-131.47	79.078	113.168	-110.476	-76.126	149.75
353	3.53	-102.326	57.88	104.933	-3.026	262.583	200.956	-29.394	276.376	188.55	-46.816	-153.158	-8.669	-46.816	31.938	-8.669	0	0	0	-139.328	-23.863	53.335	-132.027	79.073	113.132	-110.661	-76.011	150.002
354	3.54	-102.48	58.116	104.937	-4.156	263.373	200.78	-30.55	277.043	188.293	-46.816	-153.158	-8.669	-46.816	31.938	-8.669	0	0	0	-139.23	-23.823	53.492	-132.442	79.25	113.113	-110.59	-75.686	150.319
355	3.55	-102.554	58.349	105.026	-5.214	264.158	200.693	-31.619	277.709	188.1	-46.816	-153.158	-8.669	-46.816	31.938	-8.669	0	0	0	-138.915	-23.746	53.609	-132.675	79.474	113.036	-110.292	-75.299	150.608
356	3.56	-102.587	58.343	105.074	-6.13	264.648	200.564	-32.532	278.095	187.854	-46.816	-153.158	-8.669	-46.816	31.938	-8.669	0	0	0	-138.627	-23.755	53.677	-132.879	79.607	112.908	-110.021	-75.009	150.839
357	3.57	-102.631	58.14	105.047	-6.948	264.882	200.372	-33.344	278.238	187.555	-46.816	-153.158	-8.669	-46.816	31.938	-8.669	0	0	0	-138.534	-23.859	53.74	-133.176	79.625	112.793	-109.949	-74.857	151.042
358	3.58	-102.844	58.026	104.891	-7.848	265.162	200.048	-34.252	278.432	187.157	-46.816	-153.158	-8.669	-46.816	31.938	-8.669	0	0	0	-138.614	-24.018	53.861	-133.541	79.565	112.765	-110.043	-74.812	151.274
359	3.59	-103.278	58.113	104.581	-8.87	265.608	199.54	-35.302	278.794	186.621	-46.816	-153.158	-8.669	-46.816	31.938	-8.669	0	0	0	-138.76	-24.239	53.978	-133.891	79.425	112.756	-110.178	-74.867	151.474
360	3.6	-103.75	58.323	104.223	-9.818	266.135	198.961	-36.294	279.242	186.051	-46.816	-153.158	-8.669	-46.816	31.938	-8.669	0	0	0	-138.855	-24.455	53.914	-134.157	79.287	112.568	-110.222	-74.922	151.479
361	3.61	-104.07	58.565	103.944	-10.53	266.638	198.495	-37.049	279.678	185.606	-46.816	-153.158	-8.669	-46.816	31.938	-8.669	0	0	0	-138.786	-24.484	53.649	-134.295	79.343	112.169	-110.084	-74.769	151.288
362	3.62	-104.241	58.764	103.797	-11.02	267.038	198.223	-37.576	280.023	185.354	-46.816	-153.158	-8.669	-46.816	31.938	-8.669	0	0	0	-138.572	-24.315	53.381	-134.36	79.602	111.762	-109.826	-74.402	151.108
363	3.63	-104.398	58.927	103.744	-11.415	267.357	198.06	-38.002	280.3	185.212	-46.816	-153.158	-8.669	-46.816	31.938	-8.669	0	0	0	-138.353	-24.177	53.246	-134.478	79.825	111.499	-109.612	-74.066	151.076
364	3.64	-104.645	59.138	103.653	-11.833	267.709	197.824	-38.45	280.615	185.001	-46.816	-153.158	-8.669	-46.816	31.938	-8.669	0	0	0	-138.201	-24.226	53.198	-134.685	79.859	111.326	-109.512	-73.921	151.141
365	3.65	-104.994	59.446	103.417	-12.342	268.166	197.418	-38.987	281.034	184.617	-46.816	-153.158	-8.669	-46.816	31.938	-8.669	0	0	0	-138.071	-24.357	53.152	-134.928	79.818	111.14	-109.471	-73.845	151.227
